<svg width="15" height="15" viewBox="0 0 15 15" fill="none" xmlns="http://www.w3.org/2000/svg">
<path fill-rule="evenodd" clip-rule="evenodd" d="M14.2267 13.0943L10.3462 9.21388C11.0329 8.30459 11.4402 7.17242 11.4402 5.94515C11.4402 2.94677 9.00948 0.516113 6.01109 0.516113C3.01271 0.516113 0.582031 2.94677 0.582031 5.94515C0.582031 8.94352 3.01271 11.3742 6.01109 11.3742C7.23838 11.3742 8.37055 10.9669 9.27985 10.2802L13.1603 14.1607L14.2267 13.0943ZM9.93182 5.94538C9.93182 8.11087 8.17633 9.86635 6.01083 9.86635C3.84533 9.86635 2.08984 8.11087 2.08984 5.94538C2.08984 3.77989 3.84533 2.02441 6.01083 2.02441C8.17633 2.02441 9.93182 3.77989 9.93182 5.94538Z" fill="currentColor"/>
</svg>
