<svg width="846" height="921" viewBox="0 0 846 921" fill="none" xmlns="http://www.w3.org/2000/svg">
<path d="M374.833 878.761L346.527 1136.15C355.114 1139.71 363.964 1142.66 373.007 1145L402.227 881.566L409.988 881.566L422.772 767.001L435.555 881.782L444.002 881.782L472.993 1143.92C481.531 1141.84 489.918 1139.25 498.104 1136.15L469.797 878.977L478.7 878.977L466.373 768.943L502.669 874.23L511.8 871.426L583.251 1079.63C588.73 1074.88 595.35 1068.84 602.883 1061.5L534.4 864.09L543.988 861.285L509.289 760.313L565.446 852.223L574.805 847.045L663.834 992.678C668.628 986.637 673.65 980.165 678.672 973.261L594.894 836.042L604.938 830.648L551.292 742.621L623.2 818.35L632.103 810.799L723.414 907.24C727.295 901.199 731.176 894.942 734.828 888.47L648.767 796.128L658.127 787.929L589.643 715.868L672.737 773.042L680.498 762.902L770.44 824.823L779.343 806.915L692.825 747.799L701.043 737.227L621.831 683.073L711.316 720.83L717.251 707.669L807.193 745.426L813.813 728.381L725.012 691.056L731.176 677.895L646.256 642.296L737.568 660.419L740.079 646.18L834.586 665.166L838.239 648.769L743.731 629.782L747.155 614.68L661.094 596.772L749.21 596.772L749.21 581.669L846 581.669L846 566.135L749.21 566.135L749.21 549.522L614.754 549.522L614.754 544.776L744.873 518.67L748.753 535.498L842.576 516.728C839.994 499.229 836.104 481.926 830.934 464.947L737.111 483.718L740.764 500.115L739.166 500.115L610.417 526.005C608.819 519.964 606.764 514.139 604.481 508.098L726.154 456.964L733.002 471.636L820.205 434.958L819.063 432.153C813.128 416.403 806.964 401.3 800.801 386.629L709.489 424.601L716.11 438.841L714.74 438.841L594.437 489.543C591.698 484.365 588.502 479.403 585.306 474.44L694.423 401.084L703.554 412.735L785.734 355.129C778.201 338.948 770.44 323.413 762.907 308.526L671.595 371.958L680.498 383.393L572.522 457.396C568.87 453.297 565.217 449.413 561.337 445.745L650.594 351.893L660.866 360.739L744.188 273.143C735.285 257.393 726.154 242.506 717.023 228.482L622.059 328.16L632.331 336.79L542.846 430.643C538.965 427.622 534.628 424.601 530.291 421.797L597.177 312.626L608.134 318.451L688.488 186.842C677.302 171.308 665.66 157.284 656.072 143.691L564.761 294.718L575.718 300.544L508.833 410.146C504.452 407.986 499.957 406.042 495.364 404.321L536.226 283.931L547.183 287.383L612.928 96.01C595.122 78.9655 580.284 66.0203 573.664 59.5478L500.386 273.143L511.344 276.595L470.254 396.338C467.971 396.338 465.688 396.338 463.405 394.612C461.123 392.886 459.068 394.612 457.013 394.612L470.938 268.828L480.983 268.828L508.833 16.1814C494.363 9.11219 479.03 3.75012 463.177 0.215741L433.957 264.297L444.23 264.297L430.305 390.081L417.521 390.081L403.596 264.297L412.499 264.297L382.823 -2.02461e-05C366.987 3.38644 351.653 8.60378 337.167 15.5342L365.474 268.828L374.833 268.828L388.758 394.612C384.878 394.612 381.225 396.122 377.573 396.985L336.026 275.948L343.331 273.143L270.053 60.4107C262.292 66.8833 249.737 77.8867 233.985 93.6367L300.414 286.304L308.176 283.931L349.494 404.321L339.907 408.42L273.021 298.818L278.5 295.797L187.188 146.28C178.285 157.284 168.698 169.582 159.11 182.743L240.606 316.294L246.769 312.841L313.655 424.17C311.144 425.896 308.404 427.622 305.893 429.564L215.038 334.417L218.919 331.18L124.412 231.934C117.107 243.585 109.574 255.667 101.584 268.612L186.732 357.934L192.21 354.266L283.522 448.334L277.587 454.16L169.383 379.725L171.665 376.92L80.354 313.705C74.4187 325.139 68.4836 337.006 62.7766 349.519L146.555 408.204L149.294 404.536L257.498 478.971C256.072 480.906 254.776 482.924 253.617 485.012L131.488 433.663L131.488 431.29L40.177 392.886C35.3832 403.889 30.8175 414.461 26.4803 426.759L26.4803 428.053L115.509 465.594L116.879 462.358L239.236 513.923L236.953 519.748L106.149 493.427L106.149 491.701L10.9573 472.714C7.76139 484.149 5.02213 496.016 2.96757 508.098L98.1598 527.084L98.1598 525.142L231.018 551.464L231.018 556.858L97.2466 556.858L3.66941e-05 556.858C3.64489e-05 562.467 3.61943e-05 568.293 3.59397e-05 574.118C3.5685e-05 579.943 3.54304e-05 585.769 3.51758e-05 591.594L96.5618 591.594L230.105 591.594L230.105 595.909L100.899 620.721L5.47867 640.138C7.53317 651.358 10.0443 661.714 13.0119 672.933L108.204 653.731L237.866 628.272L239.008 631.508L117.335 683.073L117.335 684.584L28.0782 722.125L40.4052 752.33L131.717 714.142L254.53 663.655L255.9 665.813L146.555 740.032L148.381 742.405L62.0917 801.737L78.0712 830.217L169.383 767.433L169.383 769.374L277.587 695.155L189.928 790.95L193.124 793.539L106.378 884.155L123.727 910.692L216.408 812.525L219.376 814.898L308.632 721.262L241.747 830.648L246.312 833.021L162.991 969.377C169.611 978.223 176.003 986.637 182.394 994.405L272.336 847.261L276.902 849.634L342.646 741.758L302.012 860.206L307.948 861.932L239.464 1058.7C248.595 1067.54 256.357 1074.45 262.292 1080.27L334.428 870.778L340.591 872.72L379.627 758.802L366.387 877.898L374.833 878.761Z" fill="currentColor"/>
</svg>
